<svg width="31" height="17" viewBox="0 0 31 17" fill="none" xmlns="http://www.w3.org/2000/svg">
<path d="M7.84 3.912L7.568 5.784H3.664V8.44H7.072V10.28H3.664V13.112H7.84V15H1.04V3.912H7.84ZM11.5293 15.272C10.7933 15.272 10.2173 15.064 9.80125 14.648C9.39592 14.2213 9.19325 13.6187 9.19325 12.84V3.128L11.7213 2.856V12.744C11.7213 13.096 11.8653 13.272 12.1533 13.272C12.3026 13.272 12.4413 13.2453 12.5693 13.192L13.0653 14.984C12.6066 15.176 12.0946 15.272 11.5293 15.272ZM17.9113 2.856C18.9139 2.856 19.8526 3.06933 20.7273 3.496L20.0233 5.112C19.3939 4.856 18.7859 4.728 18.1993 4.728C17.7086 4.728 17.3673 4.81333 17.1753 4.984C16.9939 5.15467 16.9033 5.448 16.9033 5.864V6.504H21.6233V15H19.0953V8.264H16.9033V15H14.3753V8.264H13.0793V6.504H14.3753V5.768C14.3753 4.89333 14.6633 4.18933 15.2393 3.656C15.8153 3.12267 16.7059 2.856 17.9113 2.856ZM27.2814 6.232C27.868 6.232 28.396 6.31733 28.8654 6.488C29.3347 6.65867 29.7774 6.92 30.1934 7.272L29.1054 8.776C28.572 8.37067 28.0334 8.168 27.4894 8.168C26.924 8.168 26.4974 8.376 26.2094 8.792C25.9214 9.208 25.7774 9.88 25.7774 10.808C25.7774 11.704 25.9214 12.3387 26.2094 12.712C26.4974 13.0853 26.9134 13.272 27.4574 13.272C27.7454 13.272 28.0067 13.2293 28.2414 13.144C28.476 13.048 28.7587 12.8987 29.0894 12.696L30.1934 14.264C29.3507 14.936 28.396 15.272 27.3294 15.272C26.4654 15.272 25.7187 15.0907 25.0894 14.728C24.46 14.3547 23.9747 13.8373 23.6334 13.176C23.292 12.504 23.1214 11.72 23.1214 10.824C23.1214 9.928 23.292 9.13333 23.6334 8.44C23.9747 7.74667 24.46 7.208 25.0894 6.824C25.7187 6.42933 26.4494 6.232 27.2814 6.232Z" fill="#00AD90"/>
</svg>
