<svg width="42" height="17" viewBox="0 0 42 17" fill="none" xmlns="http://www.w3.org/2000/svg">
<path d="M4.032 3.06C4.76 3.06 5.39 3.16267 5.922 3.368C6.46333 3.57333 6.95333 3.886 7.392 4.306L6.328 5.552C5.66533 5.01067 4.956 4.74 4.2 4.74C3.79867 4.74 3.48133 4.824 3.248 4.992C3.01467 5.15067 2.898 5.384 2.898 5.692C2.898 5.90667 2.94933 6.084 3.052 6.224C3.15467 6.35467 3.33667 6.48067 3.598 6.602C3.85933 6.72333 4.25133 6.868 4.774 7.036C5.76333 7.35333 6.49133 7.74533 6.958 8.212C7.42467 8.66933 7.658 9.32267 7.658 10.172C7.658 10.7787 7.504 11.3153 7.196 11.782C6.888 12.2393 6.44467 12.5987 5.866 12.86C5.28733 13.112 4.60133 13.238 3.808 13.238C3.01467 13.238 2.31 13.112 1.694 12.86C1.08733 12.608 0.564667 12.272 0.126 11.852L1.288 10.578C1.66133 10.8953 2.044 11.1333 2.436 11.292C2.83733 11.4507 3.27133 11.53 3.738 11.53C4.214 11.53 4.58733 11.4273 4.858 11.222C5.138 11.0073 5.278 10.7133 5.278 10.34C5.278 10.0973 5.22667 9.89667 5.124 9.738C5.02133 9.57 4.844 9.42067 4.592 9.29C4.34 9.15933 3.976 9.01933 3.5 8.87C2.42667 8.54333 1.66133 8.142 1.204 7.666C0.756 7.19 0.532 6.588 0.532 5.86C0.532 5.3 0.681333 4.81 0.98 4.39C1.27867 3.96067 1.694 3.634 2.226 3.41C2.758 3.17667 3.36 3.06 4.032 3.06ZM13.5417 12.65C13.2711 12.8367 12.9537 12.9813 12.5897 13.084C12.2351 13.1867 11.8804 13.238 11.5257 13.238C9.90172 13.2287 9.08972 12.3327 9.08972 10.55V7.106H8.03972V5.566H9.08972V3.956L11.3017 3.704V5.566H13.0097L12.7717 7.106H11.3017V10.522C11.3017 10.8673 11.3577 11.1147 11.4697 11.264C11.5817 11.4133 11.7591 11.488 12.0017 11.488C12.2537 11.488 12.5197 11.4087 12.7997 11.25L13.5417 12.65ZM20.5521 13H18.6341L18.5361 12.062C17.9948 12.846 17.2434 13.238 16.2821 13.238C15.6008 13.238 15.0828 13.0327 14.7281 12.622C14.3828 12.2113 14.2101 11.6373 14.2101 10.9V5.566H16.4221V10.62C16.4221 10.984 16.4781 11.2407 16.5901 11.39C16.7114 11.53 16.8934 11.6 17.1361 11.6C17.6028 11.6 18.0041 11.3107 18.3401 10.732V5.566H20.5521V13ZM28.9558 2.612V13H26.9958L26.8838 12.132C26.3612 12.8693 25.6565 13.238 24.7698 13.238C23.8458 13.238 23.1412 12.8833 22.6558 12.174C22.1798 11.4647 21.9418 10.494 21.9418 9.262C21.9418 8.506 22.0678 7.82933 22.3198 7.232C22.5718 6.63467 22.9265 6.168 23.3838 5.832C23.8505 5.496 24.3825 5.328 24.9798 5.328C25.6892 5.328 26.2772 5.56133 26.7438 6.028V2.374L28.9558 2.612ZM25.4558 11.614C25.9692 11.614 26.3985 11.334 26.7438 10.774V7.568C26.5665 7.35333 26.3845 7.19467 26.1978 7.092C26.0205 6.98933 25.8152 6.938 25.5818 6.938C25.1712 6.938 24.8445 7.12933 24.6018 7.512C24.3592 7.89467 24.2378 8.48267 24.2378 9.276C24.2378 10.144 24.3405 10.7507 24.5458 11.096C24.7605 11.4413 25.0638 11.614 25.4558 11.614ZM32.8984 5.566V13H30.6864V5.566H32.8984ZM31.7784 1.646C32.161 1.646 32.4737 1.76733 32.7164 2.01C32.9684 2.24333 33.0944 2.542 33.0944 2.906C33.0944 3.27 32.9684 3.57333 32.7164 3.816C32.4737 4.04933 32.161 4.166 31.7784 4.166C31.3957 4.166 31.083 4.04933 30.8404 3.816C30.5977 3.57333 30.4764 3.27 30.4764 2.906C30.4764 2.542 30.5977 2.24333 30.8404 2.01C31.083 1.76733 31.3957 1.646 31.7784 1.646ZM37.8575 5.328C38.9962 5.328 39.8875 5.678 40.5315 6.378C41.1755 7.06867 41.4975 8.03933 41.4975 9.29C41.4975 10.0833 41.3482 10.7787 41.0495 11.376C40.7602 11.964 40.3402 12.4213 39.7895 12.748C39.2482 13.0747 38.6042 13.238 37.8575 13.238C36.7282 13.238 35.8369 12.8927 35.1835 12.202C34.5395 11.502 34.2175 10.5267 34.2175 9.276C34.2175 8.48267 34.3622 7.792 34.6515 7.204C34.9502 6.60667 35.3702 6.14467 35.9115 5.818C36.4622 5.49133 37.1109 5.328 37.8575 5.328ZM37.8575 6.952C37.4095 6.952 37.0735 7.14333 36.8495 7.526C36.6255 7.89933 36.5135 8.48267 36.5135 9.276C36.5135 10.088 36.6209 10.6807 36.8355 11.054C37.0595 11.4273 37.4002 11.614 37.8575 11.614C38.3055 11.614 38.6415 11.4273 38.8655 11.054C39.0895 10.6713 39.2015 10.0833 39.2015 9.29C39.2015 8.478 39.0895 7.88533 38.8655 7.512C38.6509 7.13867 38.3149 6.952 37.8575 6.952Z" fill="#D9D9D9"/>
</svg>
